<?xml version="1.0" standalone="no"?>
<!DOCTYPE svg PUBLIC "-//W3C//DTD SVG 20010904//EN"
 "http://www.w3.org/TR/2001/REC-SVG-20010904/DTD/svg10.dtd">
<svg version="1.0" xmlns="http://www.w3.org/2000/svg"
 width="150.000000pt" height="150.000000pt" viewBox="0 0 150.000000 150.000000"
 preserveAspectRatio="xMidYMid meet">
<metadata>
Created by potrace 1.11, written by Peter Selinger 2001-2013
</metadata>
<g transform="translate(0.000000,150.000000) scale(0.100000,-0.100000)"
fill="#000000" stroke="none">
<path d="M960 1125 c0 -33 4 -45 15 -45 8 0 15 -7 15 -15 0 -8 7 -15 15 -15 8
0 15 7 15 15 0 8 7 15 15 15 11 0 15 12 15 45 l0 45 -45 0 -45 0 0 -45z"/>
<path d="M210 975 l0 -165 45 0 45 0 0 60 c0 47 3 60 15 60 8 0 15 -7 15 -15
0 -8 7 -15 15 -15 11 0 15 -12 15 -45 l0 -45 45 0 45 0 0 60 c0 47 -3 60 -15
60 -8 0 -15 7 -15 15 0 10 -10 15 -30 15 -20 0 -30 5 -30 15 0 10 10 15 30 15
20 0 30 5 30 15 0 8 7 15 15 15 12 0 15 13 15 60 l0 60 -45 0 c-43 0 -45 -1
-45 -30 0 -20 -5 -30 -15 -30 -10 0 -15 -10 -15 -30 0 -20 -5 -30 -15 -30 -12
0 -15 13 -15 60 l0 60 -45 0 -45 0 0 -165z"/>
<path d="M480 1065 c0 -60 3 -75 15 -75 8 0 15 -7 15 -15 0 -8 7 -15 15 -15
12 0 15 -15 15 -75 l0 -75 45 0 45 0 0 75 c0 60 3 75 15 75 8 0 15 7 15 15 0
8 7 15 15 15 12 0 15 15 15 75 l0 75 -45 0 -45 0 0 -60 c0 -47 -3 -60 -15 -60
-12 0 -15 13 -15 60 l0 60 -45 0 -45 0 0 -75z"/>
<path d="M720 1005 c0 -113 2 -135 15 -135 8 0 15 -7 15 -15 0 -8 7 -15 15
-15 8 0 15 -7 15 -15 0 -11 12 -15 45 -15 33 0 45 4 45 15 0 8 7 15 15 15 8 0
15 7 15 15 0 8 7 15 15 15 13 0 15 22 15 135 l0 135 -45 0 -45 0 0 -120 c0
-100 -2 -120 -15 -120 -12 0 -15 20 -15 120 l0 120 -45 0 -45 0 0 -135z"/>
<path d="M1110 1125 c0 -8 -7 -15 -15 -15 -11 0 -15 -12 -15 -45 0 -33 4 -45
15 -45 8 0 15 -7 15 -15 0 -8 7 -15 15 -15 8 0 15 -7 15 -15 0 -8 7 -15 15
-15 8 0 15 -7 15 -15 0 -8 7 -15 15 -15 8 0 15 -7 15 -15 0 -8 -7 -15 -15 -15
-8 0 -15 7 -15 15 0 8 -7 15 -15 15 -8 0 -15 7 -15 15 0 10 -10 15 -30 15
l-30 0 0 -60 c0 -47 3 -60 15 -60 8 0 15 -7 15 -15 0 -12 15 -15 75 -15 60 0
75 3 75 15 0 8 7 15 15 15 11 0 15 12 15 45 0 33 -4 45 -15 45 -8 0 -15 7 -15
15 0 8 -7 15 -15 15 -8 0 -15 7 -15 15 0 8 -7 15 -15 15 -8 0 -15 7 -15 15 0
8 -7 15 -15 15 -8 0 -15 7 -15 15 0 8 7 15 15 15 8 0 15 -7 15 -15 0 -8 7 -15
15 -15 8 0 15 -7 15 -15 0 -10 10 -15 30 -15 l30 0 0 60 c0 47 -3 60 -15 60
-8 0 -15 7 -15 15 0 12 -15 15 -75 15 -60 0 -75 -3 -75 -15z"/>
<path d="M0 525 l0 -165 75 0 c60 0 75 3 75 15 0 8 7 15 15 15 8 0 15 7 15 15
0 8 7 15 15 15 11 0 15 12 15 45 0 33 -4 45 -15 45 -8 0 -15 7 -15 15 0 8 7
15 15 15 11 0 15 12 15 45 0 33 -4 45 -15 45 -8 0 -15 7 -15 15 0 8 -7 15 -15
15 -8 0 -15 7 -15 15 0 12 -15 15 -75 15 l-75 0 0 -165z m120 60 c0 -8 -7 -15
-15 -15 -8 0 -15 7 -15 15 0 8 7 15 15 15 8 0 15 -7 15 -15z m0 -120 c0 -8 -7
-15 -15 -15 -8 0 -15 7 -15 15 0 8 7 15 15 15 8 0 15 -7 15 -15z"/>
<path d="M300 675 c0 -8 -7 -15 -15 -15 -8 0 -15 -7 -15 -15 0 -8 -7 -15 -15
-15 -13 0 -15 -22 -15 -135 l0 -135 45 0 45 0 0 45 c0 43 1 45 30 45 29 0 30
-2 30 -45 l0 -45 45 0 45 0 0 135 c0 113 -2 135 -15 135 -8 0 -15 7 -15 15 0
8 -7 15 -15 15 -8 0 -15 7 -15 15 0 12 -13 15 -60 15 -47 0 -60 -3 -60 -15z
m90 -105 c0 -27 -3 -30 -30 -30 -27 0 -30 3 -30 30 0 27 3 30 30 30 27 0 30
-3 30 -30z"/>
<path d="M510 525 l0 -165 45 0 45 0 0 60 c0 47 3 60 15 60 8 0 15 -7 15 -15
0 -8 7 -15 15 -15 11 0 15 -12 15 -45 l0 -45 45 0 45 0 0 60 c0 47 -3 60 -15
60 -8 0 -15 7 -15 15 0 10 -10 15 -30 15 -20 0 -30 5 -30 15 0 10 10 15 30 15
20 0 30 5 30 15 0 8 7 15 15 15 12 0 15 13 15 60 l0 60 -45 0 c-43 0 -45 -1
-45 -30 0 -20 -5 -30 -15 -30 -10 0 -15 -10 -15 -30 0 -20 -5 -30 -15 -30 -12
0 -15 13 -15 60 l0 60 -45 0 -45 0 0 -165z"/>
<path d="M780 525 l0 -165 105 0 105 0 0 45 0 45 -60 0 c-47 0 -60 3 -60 15 0
11 12 15 45 15 l45 0 0 45 0 45 -45 0 c-33 0 -45 4 -45 15 0 12 13 15 60 15
l60 0 0 45 0 45 -105 0 -105 0 0 -165z"/>
<path d="M1020 525 l0 -165 45 0 45 0 0 60 0 60 30 0 30 0 0 -60 0 -60 45 0
45 0 0 75 c0 60 -3 75 -15 75 -8 0 -15 7 -15 15 0 8 7 15 15 15 12 0 15 13 15
60 0 47 -3 60 -15 60 -8 0 -15 7 -15 15 0 12 -18 15 -105 15 l-105 0 0 -165z
m150 60 c0 -10 -10 -15 -30 -15 -20 0 -30 5 -30 15 0 10 10 15 30 15 20 0 30
-5 30 -15z"/>
<path d="M1290 615 c0 -60 3 -75 15 -75 8 0 15 -7 15 -15 0 -8 7 -15 15 -15
12 0 15 -15 15 -75 l0 -75 45 0 45 0 0 75 c0 60 3 75 15 75 8 0 15 7 15 15 0
8 7 15 15 15 12 0 15 15 15 75 l0 75 -45 0 -45 0 0 -60 c0 -47 -3 -60 -15 -60
-12 0 -15 13 -15 60 l0 60 -45 0 -45 0 0 -75z"/>
</g>
</svg>
